<svg xmlns="http://www.w3.org/2000/svg" viewBox="0 0 250 250" width="250" height="250">
  <path
    d="
      M 66 20 Q 102 12 186 20
      M 186 20 Q 192 70 186 118
      M 186 118 Q 230 100 220 46
      M 220 46 Q 200 30 190 46
      M 186 118 Q 170 170 125 167
      M 125 167 Q 80 150 67 118
      M 67 118 Q 59 65 66 20
      M 67 118 Q 30 120 23 45
      M 23 45 Q 40 35 62 45
      M 113 168 113 200
      M 138 168 138 200
      M 178 228 Q 136 238 73 228
      M 178 228 Q 136 178 73 228
    "
    fill="none"
    stroke="#000"
    stroke-width="25"
    stroke-linejoin="round"
    stroke-linecap="round"
  />
</svg>
