<svg xmlns="http://www.w3.org/2000/svg" viewBox="0 0 250 250" width="250" height="250">
  <path
    d="
      M 90 222 Q 35 218, 31 169
      M 31 169 Q 83 168, 90 222
      M 90 222 Q 127 188, 145 155
      M 145 155 Q 174 111, 223 86
      M 223 86 Q 207 35, 172 24
      M 172 24 Q 100 145, 31 169
      M 134 170 Q 137 136, 102 122
      M 102 122 Q 79 125, 53 89
      M 53 89 69 82 74 62
      M 74 62 Q 98 103, 118 99
      M 118 99 Q 158 108, 158 137
    "
    fill="none"
    stroke="#000"
    stroke-width="25"
    stroke-linejoin="round"
    stroke-linecap="round"
  />
</svg>
