<svg xmlns="http://www.w3.org/2000/svg" xmlns:xlink="http://www.w3.org/1999/xlink" viewBox="0 0 250 250" width="250" height="250">
  <image x="0" y="0" width="250" height="250" xlink:href="https://www.iconfinder.com/data/icons/logos-and-brands-3/512/84_Dev_logo_logos-512.png" />
  <path
    d="
      M 19 42 Q 17 18 42 19
      M 42 19 Q 162 23 202 19
      M 202 19 Q 232 24 232 49
      M 232 49 Q 236 153 232 195
      M 232 195 Q 232 233 202 231
      M 202 231 Q 133 227 42 231
      M 42 231 Q 20 231 19 208
      M 19 208 Q 12 142 19 42

      M 53 92 Q 84 87 83 122
      M 83 122 Q 83 165 53 157
      M 53 157 Q 56 123 53 92

      M 134 92 Q 122 90 108 92
      M 108 92 Q 103 132 108 157
      M 108 157 Q 122 159 134 157
      M 108 127 Q 118 125 128 127

      M 158 92 Q 168 142 178 157
      M 178 157 Q 188 142 198 92
    "
    fill="none"
    stroke="#f00"
    stroke-width="18"
    stroke-linejoin="round"
    stroke-linecap="round"
  />
</svg>
