<svg xmlns="http://www.w3.org/2000/svg" viewBox="0 0 250 250">
  <path
    d="
      M 30 123 Q 38 30 123 30
      M 123 30 Q 216 26 221 123
      M 221 123 Q 222 228 124 221
      M 124 221 Q 32 212 30 123
      M 108 216 Q 103 190 108 181
      M 108 181 Q 68 171 69 141
      M 69 141 Q 67 83 125 83
      M 125 83 Q 182 82 183 124
      M 183 124 Q 175 173 145 178
      M 145 178 Q 153 198 145 218
      M 77 102 Q 71 80 74 72
      M 74 72 Q 88 72 96 81
      M 146 81 Q 160 71 178 71
      M 178 71 Q 180 82 178 96
    "
    fill="none"
    stroke="#000"
    stroke-width="18"
    stroke-linejoin="round"
    stroke-linecap="round"
  />
</svg>
