<svg xmlns="http://www.w3.org/2000/svg" viewBox="0 0 250 250">
  <path
    d="
      M 48 63 Q 52 52 62 53
      M 62 53 Q 75 55 77 63
      M 77 63 Q 77 77 65 77
      M 65 77 Q 46 75 48 63
      M 48 103 Q 68 99 78 103
      M 78 103 Q 72 148 78 198
      M 78 198 Q 68 194 48 198
      M 48 198 Q 38 99 48 103
      M 103 97 Q 107 123 103 198
      M 103 198 Q 116 201 133 198
      M 133 198 Q 136 172 133 144
      M 133 144 Q 163 104 173 144
      M 173 144 Q 177 153 173 198
      M 173 198 Q 193 201 201 198
      M 201 198 Q 206 168 201 138
      M 201 138 Q 196 108 171 98
      M 171 98 Q 146 96 136 112
      M 136 112 136 97
      M 136 97 Q 123 87 103 97
    "
    fill="none"
    stroke="#000"
    stroke-width="18"
    stroke-linejoin="round"
    stroke-linecap="round"
  />
</svg>
