<svg xmlns="http://www.w3.org/2000/svg" viewBox="0 0 250 250" width="250" height="250">
  <path
    d="
      M 18 98 Q 80 55 123 53
      M 123 53 Q 155 47 233 98
      M 233 98 Q 227 110 202 123
      M 202 123 Q 144 73 53 123
      M 53 123 Q 20 110 18 98
      M 53 123 Q 50 140 53 153
      M 53 153 Q 150 123 193 153
      M 193 153 Q 189 180 123 183
      M 123 183 Q 63 180 53 153
      M 193 153 202 123
      M 29 113 Q 37 165 29 200
    "
    fill="none"
    stroke="#000"
    stroke-width="15"
    stroke-linejoin="round"
    stroke-linecap="round"
  />
</svg>
