<svg xmlns="http://www.w3.org/2000/svg" viewBox="0 0 250 250" width="250" height="250">
  <path
    d="
      M 33 126 Q 36 95 33 37
      M 33 37 Q 32 19 52 19
      M 52 19 Q 150 16 192 19
      M 192 19 Q 218 19 216 39
      M 216 39 Q 213 75 216 126

      M 229 124 Q 150 164 22 124
      M 22 124 Q 140 206 229 124

      M 117 166 Q 113 191 117 221
      M 117 221 Q 119 232 108 231
      M 108 231 Q 73 236 63 191
      M 63 191 Q 61 177 69 164

      M 133 166 Q 129 191 133 221
      M 133 221 Q 133 232 145 232
      M 145 232 Q 171 235 182 195
      M 182 195 Q 187 180 182 165

      M 71 102 Q 73 83 89 83
      M 89 83 Q 115 83 114 103
      M 114 103 Q 114 123 94 123
      M 94 123 Q 74 122 71 102

      M 156 85 Q 175 85 178 105
      M 178 105 Q 178 125 158 125
      M 158 125 Q 142 123 138 105
      M 138 105 Q 139 85 156 85
    "
    fill="none"
    stroke="#000"
    stroke-width="18"
    stroke-linejoin="round"
    stroke-linecap="round"
  />
</svg>
