<svg xmlns="http://www.w3.org/2000/svg" viewBox="0 0 250 250">
  <path
    d="
      M 123 92 Q 126 46 155 38
      M 155 38 Q 183 36 198 52
      M 198 52 Q 200 57 225 41
      M 225 41 Q 217 58 211 61
      M 211 61 Q 221 63 228 58
      M 228 58 Q 218 79 208 82
      M 208 82 Q 193 248 18 195
      M 18 195 Q 79 191 81 178
      M 81 178 Q 61 178 41 146
      M 41 146 Q 41 146 61 148
      M 61 148 Q 26 125 24 102
      M 24 102 Q 24 102 44 108
      M 44 108 Q 17 79 31 48
      M 31 48 Q 77 92 123 92
    "
    fill="none"
    stroke="#000"
    stroke-width="18"
    stroke-linejoin="round"
    stroke-linecap="round"
  />
</svg>
