<svg xmlns="http://www.w3.org/2000/svg" viewBox="0 0 600 300" width="600" height="300">
  <defs>
    <linearGradient id="glossy" gradientTransform="rotate(12)">
      <stop offset="0%" stop-color="#fff" stop-opacity="0" />
      <stop offset="30%" stop-color="#fff" stop-opacity="0" />
      <stop offset="50%" stop-color="#fff" stop-opacity="0.8" />
      <stop offset="70%" stop-color="#fff" stop-opacity="0" />
    </linearGradient>
  </defs>

  <path
    d="
      M 30 30, 67 63, 29 94, 62 118, 27 153, 65 182, 35 209, 62 243, 27 270
      Q 250 250, 570 270
      M 570 270, 540 240, 570 210, 540 180, 570 150, 540 120, 570 90, 540 60, 570 30
      Q 250 60, 30 30
    "
    stroke-linejoin="round"
    stroke-linecap="round"
    stroke="none"
    fill="#bbebff"
    opacity="0.8"
    stroke-width="10"
  />
  <path
    d="
      M 30 30, 67 63, 29 94, 62 118, 27 153, 65 182, 35 209, 62 243, 27 270
      Q 250 250, 570 270
      M 570 270, 540 240, 570 210, 540 180, 570 150, 540 120, 570 90, 540 60, 570 30
      Q 250 60, 30 30
    "
    stroke-linejoin="round"
    stroke-linecap="round"
    stroke="none"
    fill="url('#glossy')"
    opacity="1"
    stroke-width="10"
  />
</svg>
